<svg xmlns="http://www.w3.org/2000/svg" viewBox="0 0 38.89 40.28"><defs><style>.cls-1{fill:#231f20;}</style></defs><g id="Layer_2" data-name="Layer 2"><g id="Layer_1-2" data-name="Layer 1"><path class="cls-1" d="M18.13,11.75,14,7.65a22.15,22.15,0,0,0-4.8,2.27L7.42,8.12A24.89,24.89,0,0,1,17.68,4.23L13.45,0A30.9,30.9,0,0,0,8.28,1.9,30,30,0,0,0,3.83,4.53,29.79,29.79,0,0,0,0,7.76L15.91,23.67l3.54-3.53-6.56-6.56A17.22,17.22,0,0,1,18.13,11.75Z"/><path class="cls-1" d="M23,16.6l-3.53,3.54L26,26.7a17.2,17.2,0,0,1-5.24,1.82l4.1,4.11a21.73,21.73,0,0,0,4.8-2.28l1.81,1.81a24.57,24.57,0,0,1-4.66,2.42A24.32,24.32,0,0,1,21.21,36l4.23,4.24a30.08,30.08,0,0,0,5.17-1.91,29.47,29.47,0,0,0,4.45-2.62,29.09,29.09,0,0,0,3.83-3.24Z"/><path class="cls-1" d="M30.94,14.9a6.25,6.25,0,1,0-4.42-1.83A6.25,6.25,0,0,0,30.94,14.9Zm-2.3-8.55a3.26,3.26,0,1,1-.95,2.3A3.2,3.2,0,0,1,28.64,6.35Z"/><path class="cls-1" d="M8,25.38a6.25,6.25,0,1,0,4.42,1.83A6.23,6.23,0,0,0,8,25.38Zm2.3,8.55a3.25,3.25,0,1,1,0-4.6,3.26,3.26,0,0,1,0,4.6Z"/></g></g></svg>